# xmcd
#
# Track frame offsets: 
#        150
#        11796
#        20509
#        31077
#        42866
#        51507
#        67672
#        76424
#        85943
#        96813
#        109863
#
# Disc length: 1561 seconds
#
# Revision: 0
# Processed by: cddbd v1.4PL0 Copyright (c) Steve Scherf et al.
# Submitted via: ExactAudioCopy v0.90b2
#
DISCID=8006170b
DTITLE=Moe Bandy - The Crazy Cajun Recordings
DYEAR=1900
DGENRE=Country
TTITLE0=As Long As There's A Chance
TTITLE1=Playboy
TTITLE2=My Heart Belongs To You
TTITLE3=You're Part Of Me
TTITLE4=What Would You Do
TTITLE5=Pleading
TTITLE6=Too Many Times Before
TTITLE7=Anything For You
TTITLE8=Lonely Girl
TTITLE9=Still A Fool For You
TTITLE10=Hey There My Friend
EXTD=
EXTT0=
EXTT1=
EXTT2=
EXTT3=
EXTT4=
EXTT5=
EXTT6=
EXTT7=
EXTT8=
EXTT9=
EXTT10=
PLAYORDER=
